<svg width="18" height="18" viewBox="0 0 18 18" fill="none" xmlns="http://www.w3.org/2000/svg">
<path d="M11.1367 2.14453V2.64453H11.6367H14.2734C16.0387 2.64453 17.5 4.08302 17.5 5.83594C17.5 7.58885 16.0387 9.02734 14.2734 9.02734H13.4371H12.23L13.0835 9.88089L13.4118 10.2092L13.3733 10.2478L12.1255 8.99998L13.3733 7.75224L13.4118 7.7908L13.0835 8.1191L12.23 8.97266H13.4371H14.2734C15.9947 8.97266 17.4453 7.57442 17.4453 5.83594C17.4453 4.09746 15.9947 2.69922 14.2734 2.69922H11.6367H11.1367V3.19922V4.80859H6.86328V3.66066V2.89023V2.45355V1.68314V0.5H11.1367V2.14453ZM11.1367 9.21832V9.98873V11.1367H6.86328V9.52734V9.02734H6.36328H3.72656C2.00528 9.02734 0.554688 10.4256 0.554688 12.1641C0.554688 13.9025 2.00528 15.3008 3.72656 15.3008H4.56289H5.76996L4.91646 14.4472L4.58817 14.1189L4.62674 14.0804L5.87451 15.3281L4.62674 16.5759L4.58818 16.5373L4.91648 16.209L5.77004 15.3555H4.56293H3.72656C1.96133 15.3555 0.5 13.917 0.5 12.1641C0.5 10.4111 1.96133 8.97266 3.72656 8.97266H6.36328H6.86328V8.47266V6.86328H11.1367V8.01121V8.78164V9.21832ZM6.86328 14.3394V13.1914H11.1367V17.5H6.86328V16.3169V15.5465V15.1098V14.3394ZM4.62674 1.42412L5.87451 2.67189L4.62674 3.91963L4.58818 3.88107L4.91648 3.55277L5.77004 2.69922H4.56293H1.02734V2.64453H4.56289H5.76996L4.91646 1.79099L4.58817 1.46268L4.62674 1.42412Z" fill="#114B63" stroke="#114B63"/>
</svg>
