<svg width="41" height="39" viewBox="0 0 41 39" fill="none" xmlns="http://www.w3.org/2000/svg">
<path d="M11.68 8.23238C13.5006 9.80601 14.2366 11.6597 14.395 15.0719C14.4167 15.5368 14.8005 15.899 15.2614 15.899C15.2749 15.899 15.2886 15.8987 15.3023 15.8981C15.7811 15.8759 16.1512 15.4699 16.129 14.9915C15.95 11.1382 14.99 8.79986 12.8156 6.92039C12.4532 6.607 11.9049 6.64662 11.5913 7.00899C11.2778 7.37127 11.3175 7.91899 11.68 8.23238ZM25.3102 15.899C25.7711 15.899 26.1549 15.5366 26.1765 15.0718C26.335 11.6596 27.0709 9.80592 28.8915 8.23229C28.9777 8.15782 29.0484 8.06709 29.0995 7.96528C29.1506 7.86348 29.1812 7.7526 29.1894 7.63898C29.1977 7.52536 29.1834 7.41123 29.1475 7.30312C29.1116 7.19501 29.0548 7.09503 28.9802 7.0089C28.6666 6.64653 28.1184 6.60709 27.756 6.9203C25.5815 8.79978 24.6215 11.1381 24.4425 14.9914C24.422 15.4352 24.8603 15.899 25.3102 15.899ZM20.1556 10.0389C19.6918 10.0669 19.3414 10.4742 19.3414 10.9385V14.9977C19.3414 15.462 19.6918 15.8694 20.1556 15.8973C20.6593 15.9276 21.0773 15.5283 21.0773 15.0316V10.9046C21.0773 10.4079 20.6593 10.0086 20.1556 10.0389ZM15.0822 22.793L18.4019 18.0286C18.4024 18.0279 18.4027 18.0271 18.4027 18.0263C18.4028 18.0254 18.4026 18.0246 18.4022 18.0239C18.4018 18.0231 18.4012 18.0225 18.4005 18.0221C18.3998 18.0216 18.399 18.0214 18.3981 18.0214H2.72566C2.72484 18.0214 2.72404 18.0216 2.72334 18.022C2.72264 18.0225 2.72206 18.023 2.72167 18.0238L0.00059087 22.7881C0.000197946 22.7888 -5.70175e-06 22.7896 1.21467e-07 22.7904C5.94469e-06 22.7912 0.000221037 22.7919 0.000624067 22.7926C0.0010271 22.7933 0.00160407 22.7939 0.00229775 22.7943C0.00299144 22.7947 0.00377774 22.7949 0.00457869 22.7949H15.0784C15.0792 22.7949 15.0799 22.7948 15.0806 22.7944C15.0812 22.7941 15.0818 22.7936 15.0822 22.793ZM37.85 18.0238C37.8496 18.0231 37.849 18.0225 37.8483 18.0221C37.8476 18.0216 37.8468 18.0214 37.846 18.0214H22.1735C22.1727 18.0214 22.1719 18.0216 22.1712 18.0221C22.1704 18.0225 22.1698 18.0231 22.1695 18.0239C22.1691 18.0246 22.1689 18.0254 22.1689 18.0263C22.169 18.0271 22.1692 18.0279 22.1697 18.0286L25.4894 22.793C25.4903 22.7942 25.4917 22.795 25.4931 22.795H40.567C40.5678 22.795 40.5686 22.7948 40.5693 22.7944C40.57 22.794 40.5705 22.7934 40.5709 22.7927C40.5713 22.792 40.5716 22.7913 40.5716 22.7904C40.5716 22.7896 40.5714 22.7889 40.571 22.7882L37.85 18.0238ZM30.1473 26.9101L31.6781 27.3781C31.6788 27.3783 31.6795 27.3784 31.6802 27.3782C31.6809 27.3781 31.6816 27.3778 31.6821 27.3774C31.6827 27.377 31.6832 27.3764 31.6835 27.3758C31.6839 27.3751 31.684 27.3744 31.684 27.3737V24.7607C31.684 24.7594 31.6836 24.7583 31.6827 24.7574C31.6818 24.7565 31.6807 24.7561 31.6794 24.7561H28.0411C28.0399 24.7561 28.0387 24.7565 28.0378 24.7574C28.037 24.7583 28.0365 24.7594 28.0365 24.7607V27.3737C28.0365 27.3768 28.0395 27.379 28.0425 27.3781L29.5732 26.9101C29.6666 26.8814 30.0537 26.8814 30.1473 26.9101Z" fill="#114B63"/>
<path d="M33.6511 24.7568C33.6499 24.7568 33.6487 24.7573 33.6479 24.7581C33.647 24.759 33.6465 24.7601 33.6465 24.7614V28.6879C33.6465 29.2419 32.9186 29.809 32.3782 29.6436L29.8616 28.8742C29.8607 28.8739 29.8597 28.8739 29.8589 28.8742L27.3423 29.6436C26.5261 29.6835 26.1033 29.3648 26.074 28.6875V24.7613C26.074 24.7601 26.0735 24.7589 26.0726 24.758C26.0718 24.7572 26.0706 24.7567 26.0694 24.7567H24.9783C24.6573 24.7567 24.3565 24.5998 24.173 24.3364L21.2754 20.1777C21.2728 20.1741 21.2669 20.1759 21.2669 20.1804V38.8334C21.2669 38.8359 21.269 38.838 21.2715 38.838H37.4205C37.4217 38.838 37.4228 38.8375 37.4237 38.8367C37.4246 38.8358 37.425 38.8346 37.425 38.8334V24.7614C37.425 24.7601 37.4246 24.759 37.4237 24.7581C37.4228 24.7573 37.4217 24.7568 37.4205 24.7568H33.6511ZM9.49023 24.7614V27.3351C9.49023 27.3382 9.49336 27.3404 9.4963 27.3394L11.001 26.8334C11.1025 26.7992 11.5253 26.7992 11.6269 26.8334L13.1317 27.3394C13.1324 27.3396 13.1331 27.3397 13.1339 27.3396C13.1346 27.3395 13.1353 27.3392 13.1359 27.3388C13.1365 27.3384 13.1369 27.3378 13.1373 27.3372C13.1376 27.3365 13.1378 27.3358 13.1378 27.3351V24.7614C13.1378 24.7601 13.1373 24.759 13.1364 24.7581C13.1356 24.7573 13.1344 24.7568 13.1332 24.7568H9.49483C9.49361 24.7568 9.49244 24.7573 9.49158 24.7581C9.49072 24.759 9.49023 24.7601 9.49023 24.7614Z" fill="#114B63"/>
<path d="M19.2961 20.1777L16.3984 24.3364C16.308 24.4661 16.1875 24.5721 16.0473 24.6453C15.9071 24.7184 15.7513 24.7567 15.5931 24.7567H15.1046C15.1034 24.7567 15.1022 24.7571 15.1014 24.758C15.1005 24.7589 15.1 24.76 15.1 24.7613V28.6831C15.1 29.2731 14.3753 29.8268 13.8059 29.6351L11.3153 28.7976C11.3143 28.7973 11.3133 28.7973 11.3123 28.7976L8.83882 29.6294C8.23935 29.831 7.52761 29.3576 7.52761 28.7059V24.7613C7.52761 24.76 7.52713 24.7589 7.52627 24.758C7.5254 24.7571 7.52424 24.7567 7.52302 24.7567H3.15107C3.14985 24.7567 3.14868 24.7571 3.14782 24.758C3.14696 24.7589 3.14648 24.76 3.14648 24.7613V38.8333C3.14648 38.8358 3.14856 38.8379 3.15107 38.8379H19.2999C19.3025 38.8379 19.3045 38.8358 19.3045 38.8333V20.1804C19.3045 20.1759 19.2987 20.1741 19.2961 20.1777ZM18.1907 4.95256C18.1918 4.9536 18.1923 4.95516 18.1921 4.95672L17.6999 7.75695C17.6998 7.75779 17.6999 7.75866 17.7002 7.75945C17.7005 7.76025 17.7011 7.76094 17.7018 7.76145C17.7024 7.76195 17.7033 7.76227 17.7041 7.76234C17.705 7.76242 17.7058 7.76227 17.7066 7.76189L20.2836 6.43967C20.2842 6.43933 20.285 6.43915 20.2857 6.43915C20.2865 6.43915 20.2872 6.43933 20.2878 6.43967L22.8648 7.76189C22.8656 7.76227 22.8665 7.76242 22.8673 7.76234C22.8682 7.76227 22.869 7.76195 22.8697 7.76145C22.8704 7.76094 22.8709 7.76025 22.8712 7.75945C22.8715 7.75866 22.8716 7.75779 22.8715 7.75695L22.3794 4.95672C22.3792 4.95597 22.3793 4.95519 22.3795 4.95447C22.3798 4.95374 22.3802 4.95309 22.3807 4.95256L24.4653 2.96949C24.4659 2.9689 24.4663 2.96814 24.4665 2.9673C24.4668 2.96646 24.4667 2.96558 24.4665 2.96476C24.4662 2.96393 24.4657 2.9632 24.4651 2.96264C24.4644 2.96208 24.4636 2.96172 24.4627 2.9616L21.5818 2.55302C21.5811 2.55293 21.5804 2.55264 21.5797 2.55221C21.5791 2.55177 21.5787 2.55118 21.5783 2.55051L20.2898 0.00255649C20.2895 0.00178893 20.2889 0.00114281 20.2881 0.000691085C20.2874 0.00023936 20.2866 0 20.2857 0C20.2849 0 20.284 0.00023936 20.2833 0.000691085C20.2826 0.00114281 20.282 0.00178893 20.2816 0.00255649L18.9931 2.5506C18.9927 2.55125 18.9923 2.55181 18.9917 2.55225C18.9911 2.55268 18.9904 2.55298 18.9896 2.55311L16.1087 2.96169C16.1078 2.96181 16.107 2.96217 16.1064 2.96273C16.1057 2.96329 16.1052 2.96402 16.105 2.96484C16.1047 2.96567 16.1047 2.96655 16.1049 2.96739C16.1051 2.96822 16.1056 2.96898 16.1062 2.96958L18.1907 4.95256ZM32.9184 12.5155C32.9195 12.5166 32.92 12.5181 32.9198 12.5197L32.4276 15.3199C32.4275 15.3208 32.4275 15.3216 32.4279 15.3224C32.4282 15.3232 32.4287 15.3239 32.4294 15.3244C32.4301 15.325 32.4309 15.3253 32.4317 15.3253C32.4326 15.3254 32.4334 15.3253 32.4342 15.3249L35.0112 14.0026C35.0118 14.0023 35.0126 14.0021 35.0133 14.0021C35.014 14.0021 35.0147 14.0023 35.0154 14.0026L37.5924 15.3249C37.5931 15.3252 37.594 15.3254 37.5948 15.3253C37.5957 15.3252 37.5965 15.3249 37.5972 15.3244C37.5979 15.3239 37.5984 15.3232 37.5987 15.3224C37.5991 15.3216 37.5992 15.3208 37.599 15.3199L37.1069 12.5197C37.1068 12.5189 37.1068 12.5182 37.1071 12.5174C37.1073 12.5167 37.1077 12.5161 37.1083 12.5155L39.1928 10.5325C39.1934 10.5319 39.1938 10.5311 39.1941 10.5303C39.1943 10.5294 39.1943 10.5286 39.194 10.5277C39.1937 10.5269 39.1932 10.5262 39.1926 10.5256C39.1919 10.5251 39.1911 10.5247 39.1903 10.5246L36.3093 10.116C36.3086 10.1159 36.3079 10.1156 36.3073 10.1152C36.3067 10.1147 36.3062 10.1142 36.3059 10.1135L35.0174 7.56553C35.017 7.56477 35.0164 7.56412 35.0157 7.56367C35.0149 7.56322 35.0141 7.56298 35.0132 7.56298C35.0124 7.56298 35.0115 7.56322 35.0108 7.56367C35.0101 7.56412 35.0095 7.56477 35.0091 7.56553L33.7206 10.1135C33.7203 10.1141 33.7198 10.1147 33.7192 10.1151C33.7186 10.1156 33.7179 10.1159 33.7172 10.116L30.8362 10.5246C30.8354 10.5247 30.8346 10.5251 30.8339 10.5256C30.8332 10.5262 30.8327 10.5269 30.8325 10.5277C30.8322 10.5286 30.8322 10.5294 30.8324 10.5303C30.8326 10.5311 30.8331 10.5319 30.8337 10.5325L32.9184 12.5155ZM3.02442 11.5614C3.02554 11.5625 3.02606 11.564 3.0258 11.5656L2.53365 14.3658C2.53296 14.3695 2.53695 14.3724 2.54033 14.3707L5.11732 13.0484C5.11798 13.0481 5.11871 13.0479 5.11945 13.0479C5.12019 13.0479 5.12092 13.0481 5.12157 13.0484L7.69857 14.3707C7.69932 14.371 7.70017 14.3712 7.70102 14.3711C7.70186 14.371 7.70267 14.3707 7.70335 14.3702C7.70403 14.3697 7.70456 14.3691 7.70488 14.3683C7.7052 14.3675 7.70529 14.3666 7.70516 14.3658L7.21309 11.5656C7.21297 11.5648 7.21303 11.564 7.21327 11.5633C7.21351 11.5626 7.21393 11.5619 7.21448 11.5614L9.29898 9.57834C9.29961 9.57775 9.30006 9.57699 9.30027 9.57615C9.30049 9.57531 9.30047 9.57443 9.3002 9.57361C9.29994 9.57278 9.29945 9.57205 9.29879 9.57149C9.29813 9.57093 9.29732 9.57057 9.29647 9.57045L6.41553 9.16187C6.41479 9.16177 6.41409 9.16149 6.41348 9.16105C6.41288 9.16062 6.41239 9.16003 6.41206 9.15936L5.12357 6.61149C5.12319 6.61072 5.1226 6.61008 5.12187 6.60963C5.12114 6.60918 5.12031 6.60894 5.11945 6.60894C5.11859 6.60894 5.11775 6.60918 5.11703 6.60963C5.1163 6.61008 5.11571 6.61072 5.11533 6.61149L3.82683 9.15945C3.8265 9.16011 3.82601 9.16069 3.8254 9.16112C3.8248 9.16156 3.8241 9.16185 3.82337 9.16196L0.942429 9.57054C0.941573 9.57066 0.940768 9.57102 0.940107 9.57158C0.939446 9.57213 0.938956 9.57287 0.938693 9.57369C0.938431 9.57452 0.938406 9.5754 0.938622 9.57624C0.938838 9.57707 0.939287 9.57783 0.939915 9.57843L3.02442 11.5614Z" fill="#114B63"/>
</svg>
