<svg width="20" height="19" viewBox="0 0 20 19" fill="none" xmlns="http://www.w3.org/2000/svg">
<path d="M16.0361 5.19867L8.46973 9.56691V18.3744L11.2931 16.7448C10.9814 16.1709 10.8134 15.529 10.8049 14.8742C10.7956 14.1598 10.9764 13.4557 11.3289 12.8342C11.6814 12.2127 12.1928 11.6961 12.8107 11.3374C13.4282 10.979 14.1298 10.791 14.8437 10.7929C14.8442 10.7929 14.8448 10.7929 14.8453 10.7929L14.8438 11.2929C15.2801 11.2913 15.7128 11.3714 16.1196 11.529L16.0361 5.19867ZM16.0361 5.19867V10.9709" fill="#7CA6B8" stroke="#114B63"/>
<path d="M0.557431 5.32462L0.550238 5.22273L8.08574 9.57312V18.3614L0.502932 13.9837V5.3324L0.557431 5.32462ZM0.502932 14.0837V14.0817C0.502937 14.0824 0.502935 14.0831 0.502932 14.0837Z" fill="#114B63" stroke="#114B63"/>
<path d="M8.23545 0.526227L15.9084 4.90675L11.9877 7.15327L11.9877 7.15327L11.9855 7.15459L11.3305 7.53445L11.3295 7.53502L8.28439 9.29196L0.659838 4.89016L4.27037 2.80576L4.27082 2.8055L4.89639 2.44523L4.89678 2.445L8.23545 0.526227Z" fill="#114B63" stroke="#114B63"/>
<path d="M12.7986 11.7571C13.4039 11.3526 14.1155 11.1367 14.8435 11.1366H14.8435C15.8198 11.1374 16.7559 11.5255 17.4462 12.2159C18.1365 12.9062 18.5247 13.8423 18.5255 14.8185C18.5254 15.5465 18.3095 16.2582 17.905 16.8635C17.5005 17.4689 16.9255 17.9408 16.2528 18.2194C15.5801 18.4981 14.8398 18.571 14.1257 18.4289C13.4115 18.2869 12.7556 17.9363 12.2407 17.4214C11.7258 16.9065 11.3752 16.2505 11.2331 15.5364C11.0911 14.8222 11.164 14.082 11.4426 13.4093C11.7213 12.7366 12.1931 12.1616 12.7986 11.7571Z" fill="#114B63" stroke="#114B63"/>
<path d="M13.1763 14.6464C13.1765 14.6466 13.1766 14.6467 13.1768 14.6469L13.1763 14.6464Z" fill="white" stroke="#114B63"/>
</svg>
