<svg width="40" height="44" viewBox="0 0 40 44" fill="none" xmlns="http://www.w3.org/2000/svg">
<path fill-rule="evenodd" clip-rule="evenodd" d="M2.58519 26.8308H5.81286C6.00723 26.8312 6.19354 26.9086 6.33098 27.046C6.46842 27.1835 6.54581 27.3698 6.54619 27.5642V35.1034C6.54581 35.2978 6.46842 35.4841 6.33098 35.6215C6.19354 35.7589 6.00723 35.8363 5.81286 35.8367H2.58519C2.39081 35.8363 2.20451 35.7589 2.06707 35.6215C1.92963 35.4841 1.85224 35.2978 1.85185 35.1034V27.5642C1.85224 27.3698 1.92963 27.1835 2.06707 27.046C2.20451 26.9086 2.39081 26.8312 2.58519 26.8308ZM7.97748 5.26907e-10C6.3997 -1.81295e-05 4.85734 0.467832 3.54546 1.34439C2.23357 2.22094 1.21108 3.46683 0.607272 4.92451C0.00346857 6.38218 -0.154523 7.98617 0.153276 9.53364C0.461074 11.0811 1.22084 12.5025 2.33649 13.6182C3.45215 14.7339 4.87358 15.4937 6.42104 15.8015C7.9685 16.1093 9.5725 15.9513 11.0302 15.3475C12.4879 14.7437 13.7338 13.7213 14.6103 12.4094C15.4869 11.0975 15.9548 9.55516 15.9548 7.97738C15.9548 5.86166 15.1143 3.8326 13.6183 2.33655C12.1223 0.840507 10.0932 2.43119e-05 7.97748 5.26907e-10ZM7.97748 14.8022C6.62765 14.8022 5.30813 14.402 4.18579 13.652C3.06345 12.9021 2.18869 11.8362 1.67213 10.5891C1.15557 9.34206 1.02042 7.96981 1.28376 6.64592C1.5471 5.32203 2.1971 4.10595 3.15157 3.15148C4.10605 2.19701 5.32212 1.547 6.64601 1.28366C7.96991 1.02032 9.34216 1.15548 10.5892 1.67204C11.8363 2.18859 12.9022 3.06335 13.6521 4.18569C14.4021 5.30804 14.8023 6.62755 14.8023 7.97738C14.8023 9.78743 14.0832 11.5233 12.8033 12.8032C11.5234 14.0831 9.78753 14.8022 7.97748 14.8022ZM7.97748 2.61919C6.91773 2.61919 5.88178 2.93344 5.00063 3.52221C4.11948 4.11097 3.4327 4.94781 3.02715 5.92689C2.62161 6.90597 2.5155 7.98333 2.72224 9.02271C2.92899 10.0621 3.43931 11.0168 4.18866 11.7662C4.93802 12.5156 5.89276 13.0259 6.93215 13.2326C7.97153 13.4394 9.04889 13.3333 10.028 12.9277C11.007 12.5222 11.8439 11.8354 12.4327 10.9542C13.0214 10.0731 13.3357 9.03713 13.3357 7.97738C13.3357 7.27373 13.1971 6.57697 12.9278 5.92688C12.6586 5.27679 12.2639 4.6861 11.7663 4.18854C11.2688 3.69099 10.6781 3.2963 10.028 3.02703C9.37789 2.75776 8.68113 2.61918 7.97748 2.61919ZM8.71081 11.6295V11.8321C8.71081 12.0265 8.63355 12.2131 8.49602 12.3506C8.3585 12.4881 8.17197 12.5654 7.97748 12.5654C7.78298 12.5654 7.59646 12.4881 7.45893 12.3506C7.32141 12.2131 7.24414 12.0265 7.24414 11.8321V11.6146C6.30438 11.3909 5.55225 10.7509 5.31291 9.79046C5.26656 9.60204 5.29696 9.40293 5.39741 9.23693C5.49787 9.07093 5.66015 8.95163 5.84857 8.90528C6.03698 8.85893 6.23609 8.88932 6.40209 8.98978C6.5681 9.09023 6.68739 9.25252 6.73374 9.44093C6.87803 10.02 7.49458 10.2527 8.0399 10.2397C8.09233 10.2385 8.16041 10.2328 8.24414 10.2227C8.59586 10.18 9.21149 10.0105 9.20077 9.5601C9.1996 9.53627 9.19713 9.51252 9.19334 9.48897C9.12331 8.91147 8.33406 8.75389 7.86564 8.67698C6.69231 8.48448 5.56096 7.91697 5.49597 6.57864C5.44179 5.46297 6.21143 4.63008 7.24414 4.35197V4.12262C7.24414 4.02631 7.26311 3.93095 7.29997 3.84198C7.33682 3.75301 7.39084 3.67217 7.45893 3.60407C7.52703 3.53597 7.60787 3.48196 7.69684 3.4451C7.78581 3.40825 7.88117 3.38928 7.97748 3.38928C8.07378 3.38928 8.16914 3.40825 8.25811 3.4451C8.34708 3.48196 8.42793 3.53597 8.49602 3.60407C8.56412 3.67217 8.61813 3.75301 8.65499 3.84198C8.69184 3.93095 8.71081 4.02631 8.71081 4.12262V4.34262C9.09794 4.43845 9.45696 4.62435 9.75864 4.88519C10.0603 5.14603 10.2961 5.47443 10.4469 5.84366C10.5165 6.02188 10.5137 6.22025 10.439 6.39643C10.3644 6.57261 10.2239 6.71264 10.0474 6.78665C9.871 6.86066 9.67263 6.86278 9.49465 6.79256C9.31667 6.72234 9.17318 6.58534 9.0948 6.4108C8.86142 5.85484 8.27622 5.6287 7.70954 5.74282C7.32362 5.82047 6.93559 6.07035 6.95695 6.51053C6.98161 7.01992 7.70211 7.16852 8.10049 7.23387C9.30939 7.43233 10.4826 7.95025 10.6488 9.31773C10.6554 9.37273 10.6598 9.44277 10.6618 9.52646C10.6897 10.6996 9.76846 11.4077 8.71081 11.6295ZM28.9669 23.4667C26.9363 23.4667 24.9513 24.0688 23.263 25.1969C21.5747 26.325 20.2587 27.9285 19.4817 29.8044C18.7046 31.6804 18.5013 33.7447 18.8975 35.7363C19.2936 37.7278 20.2714 39.5571 21.7072 40.993C23.143 42.4288 24.9724 43.4066 26.9639 43.8027C28.9555 44.1989 31.0197 43.9956 32.8957 43.2185C34.7717 42.4414 36.3752 41.1255 37.5033 39.4372C38.6314 37.7488 39.2335 35.7639 39.2335 33.7333C39.2335 31.0104 38.1519 28.3991 36.2265 26.4737C34.3011 24.5483 31.6897 23.4667 28.9669 23.4667ZM35.2834 36.8511C35.2857 37.0124 35.2442 37.1714 35.1636 37.3111C35.0829 37.4509 34.9659 37.5662 34.8251 37.6449L29.4252 40.7625C29.2866 40.8451 29.1282 40.8888 28.9669 40.8888C28.8055 40.8888 28.6471 40.8451 28.5085 40.7625L23.1085 37.6448C22.9677 37.5661 22.8507 37.4508 22.7701 37.311C22.6894 37.1713 22.648 37.0123 22.6502 36.851V30.6157C22.6479 30.4543 22.6894 30.2953 22.77 30.1556C22.8507 30.0158 22.9677 29.9005 23.1085 29.8217L28.5085 26.7041C28.6471 26.6215 28.8055 26.5779 28.9669 26.5779C29.1282 26.5779 29.2866 26.6215 29.4252 26.7041L31.2093 27.7341L24.8927 31.381V34.2531L26.7245 35.3107V32.4386L33.0412 28.7918L34.8253 29.8217C34.9661 29.9005 35.083 30.0158 35.1637 30.1556C35.2444 30.2953 35.2858 30.4543 35.2836 30.6157L35.2834 36.8511ZM1.59867 23.0754C12.6803 19.2163 22.8745 13.5413 31.6783 5.74887L31.4298 7.45479C31.4045 7.64606 31.4556 7.83962 31.5722 7.99336C31.6888 8.14711 31.8614 8.24861 32.0524 8.27579C32.2434 8.30297 32.4375 8.25364 32.5923 8.13852C32.7472 8.0234 32.8503 7.8518 32.8793 7.66104L33.4206 3.94038C33.4355 3.83359 33.4267 3.72482 33.3948 3.62182C33.3629 3.51882 33.3086 3.42413 33.2359 3.34452C33.1631 3.26491 33.0737 3.20233 32.974 3.16125C32.8743 3.12017 32.7668 3.10159 32.6591 3.10686L28.9048 3.31072C28.7119 3.32171 28.5311 3.40859 28.4021 3.55239C28.273 3.69619 28.2061 3.88523 28.2159 4.07821C28.2257 4.2712 28.3116 4.45245 28.4546 4.58237C28.5976 4.71229 28.7863 4.78032 28.9793 4.77162L30.6781 4.6794C22.0224 12.3334 12.0079 17.9025 1.11742 21.6947C0.93433 21.7586 0.78409 21.8925 0.699752 22.0671C0.615414 22.2417 0.603886 22.4426 0.667704 22.6257C0.731521 22.8088 0.865457 22.959 1.04005 23.0434C1.21464 23.1277 1.41558 23.1392 1.59867 23.0754ZM28.7353 12.753H31.963C32.1573 12.7534 32.3437 12.8308 32.4811 12.9682C32.6185 13.1057 32.6959 13.292 32.6963 13.4864V22.6055C31.4941 22.2033 30.2346 21.9988 28.9669 22C28.6419 22 28.3201 22.0138 28.0019 22.0398V13.4864C28.0022 13.292 28.0796 13.1057 28.2171 12.9682C28.3545 12.8308 28.5408 12.7534 28.7352 12.753H28.7353ZM23.2469 17.1853H20.0188C19.8244 17.1857 19.6381 17.2631 19.5007 17.4005C19.3633 17.538 19.2859 17.7243 19.2855 17.9186V27.1036C20.4684 25.3796 22.0887 24.0014 23.9802 23.1104V17.9186C23.9798 17.7243 23.9024 17.538 23.765 17.4005C23.6275 17.2631 23.4412 17.1857 23.2469 17.1853ZM14.5302 22.1124C14.7246 22.1127 14.9109 22.1901 15.0483 22.3275C15.1858 22.465 15.2632 22.6513 15.2635 22.8457V35.1035C15.2632 35.2979 15.1858 35.4842 15.0483 35.6216C14.9109 35.7591 14.7246 35.8365 14.5302 35.8368H11.3021C11.1078 35.8364 10.9214 35.7591 10.784 35.6216C10.6465 35.4842 10.5692 35.2978 10.5688 35.1035V22.8457C10.5692 22.6513 10.6466 22.465 10.784 22.3276C10.9215 22.1902 11.1078 22.1128 11.3021 22.1124H14.5302Z" fill="#114B63"/>
</svg>
