<svg width="18" height="20" viewBox="0 0 18 20" fill="none" xmlns="http://www.w3.org/2000/svg">
<path d="M14.9357 0.788623L14.5822 1.14218C14.171 0.730998 13.6133 0.5 13.0318 0.5H2.69253C2.11103 0.5 1.55335 0.730998 1.14218 1.14218C0.730998 1.55336 0.5 2.11103 0.5 2.69253V15.3151C0.5 15.8966 0.730998 16.4543 1.14218 16.8654C1.55336 17.2766 2.11103 17.5076 2.69253 17.5076H10.3817C10.3412 17.3342 10.3119 17.158 10.2941 16.9803L10.2927 16.9663L10.2929 16.9662C10.2922 16.9559 10.2914 16.9455 10.2907 16.935C10.2808 16.7979 10.2701 16.6492 10.2701 16.4894C10.2701 16.4892 10.2701 16.4891 10.2701 16.489H10.7701L14.9357 0.788623ZM14.9357 0.788623L14.5822 1.14218C14.9934 1.55336 15.2244 2.11103 15.2244 2.69253V11.9229C15.0985 11.9115 14.972 11.9063 14.8453 11.9071C14.764 11.9054 14.6827 11.9095 14.6021 11.9196L14.9357 0.788623ZM13.8536 17.9045C13.9731 17.9039 14.0917 17.8841 14.2049 17.8457L14.2157 17.842L14.2264 17.8378L15.215 17.451C15.2155 17.4508 15.216 17.4506 15.2165 17.4504C15.4094 17.3756 15.5756 17.245 15.6938 17.0751C15.8122 16.9048 15.877 16.703 15.8797 16.4955H15.8797V16.489V14.8735C15.8797 14.5981 15.7703 14.3339 15.5755 14.1392C15.5538 14.1175 15.5312 14.0968 15.5079 14.0772C15.9193 14.1927 16.2982 14.4126 16.6051 14.7207C17.0728 15.19 17.3354 15.8256 17.3353 16.4881C17.3344 16.9825 17.187 17.4655 16.9116 17.876C16.6362 18.2866 16.2452 18.6062 15.7882 18.7946C15.3311 18.9829 14.8285 19.0315 14.3438 18.9342C13.8591 18.8369 13.4142 18.5981 13.0653 18.2479C12.7163 17.8977 12.4791 17.4519 12.3835 16.9669C12.2879 16.4818 12.3383 15.9794 12.5283 15.523C12.7183 15.0666 13.0394 14.6768 13.4509 14.4029C13.6763 14.2529 13.9232 14.1414 14.1817 14.0713C14.1558 14.0926 14.1308 14.1152 14.1069 14.1392C13.9121 14.3339 13.8027 14.5981 13.8027 14.8735V15.7736L13.4721 15.9058C13.4719 15.9059 13.4717 15.906 13.4715 15.9061C13.3448 15.9564 13.2293 16.0312 13.1315 16.1262C13.0336 16.2213 12.9554 16.3349 12.9013 16.4602L13.3605 16.6581L12.9013 16.4603C12.8473 16.5856 12.8186 16.7205 12.8167 16.857C12.8149 16.9931 12.8398 17.1283 12.8901 17.2548M13.8536 17.9045C13.6463 17.9062 13.4433 17.8451 13.2713 17.7292C13.0992 17.6132 12.9663 17.4478 12.8901 17.2548M13.8536 17.9045C13.8531 17.9045 13.8525 17.9045 13.852 17.9045L13.8504 17.4045M13.8536 17.9045C13.8542 17.9045 13.8548 17.9045 13.8554 17.9045L13.8504 17.4045M12.8901 17.2548C12.8899 17.2544 12.8898 17.254 12.8896 17.2536L13.3549 17.0706M12.8901 17.2548C12.8902 17.2551 12.8904 17.2555 12.8905 17.2559L13.3549 17.0706M13.3549 17.0706C13.3287 17.0049 13.3157 16.9346 13.3167 16.8638L13.8504 17.4045M13.3549 17.0706C13.394 17.1699 13.4623 17.255 13.5507 17.3146C13.6392 17.3742 13.7437 17.4056 13.8504 17.4045M4.03879 3.37724V3.37718L4.03098 3.3773C3.75896 3.38155 3.49928 3.4915 3.30691 3.68387C3.11455 3.87623 3.0046 4.13592 3.00035 4.40793L3.00029 4.40793V4.41574C3.00029 4.69117 3.1097 4.95532 3.30446 5.15008C3.49921 5.34484 3.76336 5.45425 4.03879 5.45425H11.6856C11.961 5.45425 12.2251 5.34484 12.4199 5.15008C12.6147 4.95532 12.7241 4.69117 12.7241 4.41574H12.7241L12.724 4.40793C12.7198 4.13592 12.6098 3.87624 12.4174 3.68387C12.2251 3.4915 11.9654 3.38155 11.6934 3.3773L11.6934 3.37724H11.6856H4.03879ZM3.53879 6.43595V6.57299C3.45593 6.61901 3.37903 6.67644 3.31053 6.74425C3.11844 6.93442 3.00733 7.19151 3.00045 7.46172L3.00029 7.46172V7.47446C3.00029 7.74989 3.1097 8.01403 3.30446 8.20879C3.49921 8.40355 3.76336 8.51296 4.03879 8.51296H11.6856C11.961 8.51296 12.2251 8.40355 12.4199 8.20879C12.6147 8.01403 12.7241 7.74988 12.7241 7.47446H12.7241L12.724 7.46664C12.7198 7.19463 12.6098 6.93495 12.4174 6.74258C12.2251 6.55021 11.9654 6.44026 11.6934 6.43601L11.6934 6.43595H11.6856H4.03879H3.53879ZM12.724 10.541L12.7241 10.541V10.5332C12.7241 10.2577 12.6147 9.99359 12.4199 9.79883C12.2251 9.60408 11.961 9.49466 11.6856 9.49466H4.03879C3.76336 9.49466 3.49921 9.60408 3.30446 9.79883C3.1097 9.99359 3.00029 10.2577 3.00029 10.5332H3.00022L3.00035 10.541C3.0046 10.813 3.11455 11.0727 3.30691 11.265C3.49928 11.4574 3.75896 11.5674 4.03098 11.5716L4.03098 11.5717H4.03879H11.6856V11.5717L11.6934 11.5716C11.9654 11.5674 12.2251 11.4574 12.4174 11.265C12.6098 11.0727 12.7198 10.813 12.724 10.541ZM4.03879 14.6304H9.93004C10.2055 14.6304 10.4696 14.521 10.6644 14.3262C10.8591 14.1315 10.9685 13.8673 10.9685 13.5919C10.9685 13.3165 10.8591 13.0523 10.6644 12.8575C10.4696 12.6628 10.2055 12.5534 9.93004 12.5534H4.03879C3.76336 12.5534 3.49921 12.6628 3.30446 12.8575C3.1097 13.0523 3.00029 13.3165 3.00029 13.5919C3.00029 13.8673 3.1097 14.1315 3.30446 14.3262C3.49921 14.521 3.76336 14.6304 4.03879 14.6304Z" fill="#114B63" stroke="#114B63"/>
</svg>
