<svg width="21" height="17" viewBox="0 0 21 17" fill="none" xmlns="http://www.w3.org/2000/svg">
<mask id="path-1-inside-1_2593_14999" fill="white">
<path fill-rule="evenodd" clip-rule="evenodd" d="M8.58684 0.0238646L11.2654 1.05852L3.26849 4.14758L0.466836 3.06534L8.34086 0.0238646C8.42304 -0.00795485 8.50458 -0.00795485 8.58684 0.0238646ZM16.9276 8.90864C19.1768 8.90864 21 10.72 21 12.9543C21 15.1887 19.1767 17 16.9276 17C14.6785 17 12.8551 15.1887 12.8551 12.9543C12.8551 10.72 14.6784 8.90864 16.9276 8.90864ZM18.4696 11.1094L16.0572 13.5059L15.234 12.4767C15.0315 12.2237 14.6607 12.1816 14.406 12.3828C14.1512 12.5839 14.1089 12.9522 14.3114 13.2053L15.523 14.7198C15.7325 15.0179 16.1638 15.0587 16.4248 14.7994L19.3044 11.9387C19.535 11.7097 19.535 11.3384 19.3044 11.1094C19.0739 10.8804 18.7001 10.8804 18.4696 11.1094ZM14.1256 2.16335C11.46 3.19312 8.79442 4.22285 6.12865 5.25236L8.46381 6.15435L16.4608 3.06534L14.1256 2.16335ZM16.9276 3.60614L8.8032 6.74438V16.0926L12.4984 14.6653C12.2906 14.1348 12.1764 13.5579 12.1764 12.9543C12.1764 10.3476 14.3035 8.23441 16.9276 8.23441V3.60614ZM8.12441 16.0925V6.74438L5.66198 5.79325V7.76723C5.66198 7.86265 5.54977 7.91415 5.47672 7.85228L4.16984 6.74657L2.94764 7.12414C2.93081 7.12943 2.91297 7.13069 2.89556 7.12782C2.87815 7.12496 2.86166 7.11805 2.84745 7.10766C2.83324 7.09728 2.82169 7.0837 2.81375 7.06804C2.80582 7.05239 2.80172 7.03509 2.80178 7.01756V4.68842L0 3.60618V12.7236C0 12.8655 0.0833636 12.9865 0.216533 13.038L8.12441 16.0925Z"/>
</mask>
<path fill-rule="evenodd" clip-rule="evenodd" d="M8.58684 0.0238646L11.2654 1.05852L3.26849 4.14758L0.466836 3.06534L8.34086 0.0238646C8.42304 -0.00795485 8.50458 -0.00795485 8.58684 0.0238646ZM16.9276 8.90864C19.1768 8.90864 21 10.72 21 12.9543C21 15.1887 19.1767 17 16.9276 17C14.6785 17 12.8551 15.1887 12.8551 12.9543C12.8551 10.72 14.6784 8.90864 16.9276 8.90864ZM18.4696 11.1094L16.0572 13.5059L15.234 12.4767C15.0315 12.2237 14.6607 12.1816 14.406 12.3828C14.1512 12.5839 14.1089 12.9522 14.3114 13.2053L15.523 14.7198C15.7325 15.0179 16.1638 15.0587 16.4248 14.7994L19.3044 11.9387C19.535 11.7097 19.535 11.3384 19.3044 11.1094C19.0739 10.8804 18.7001 10.8804 18.4696 11.1094ZM14.1256 2.16335C11.46 3.19312 8.79442 4.22285 6.12865 5.25236L8.46381 6.15435L16.4608 3.06534L14.1256 2.16335ZM16.9276 3.60614L8.8032 6.74438V16.0926L12.4984 14.6653C12.2906 14.1348 12.1764 13.5579 12.1764 12.9543C12.1764 10.3476 14.3035 8.23441 16.9276 8.23441V3.60614ZM8.12441 16.0925V6.74438L5.66198 5.79325V7.76723C5.66198 7.86265 5.54977 7.91415 5.47672 7.85228L4.16984 6.74657L2.94764 7.12414C2.93081 7.12943 2.91297 7.13069 2.89556 7.12782C2.87815 7.12496 2.86166 7.11805 2.84745 7.10766C2.83324 7.09728 2.82169 7.0837 2.81375 7.06804C2.80582 7.05239 2.80172 7.03509 2.80178 7.01756V4.68842L0 3.60618V12.7236C0 12.8655 0.0833636 12.9865 0.216533 13.038L8.12441 16.0925Z" fill="#114B63"/>
<path d="M8.58684 0.0238646L8.22607 0.956522L8.22651 0.95669L8.58684 0.0238646ZM11.2654 1.05852L11.6257 1.99135L14.0406 1.05852L11.6257 0.125697L11.2654 1.05852ZM3.26849 4.14758L2.90815 5.0804L3.26849 5.21959L3.62882 5.0804L3.26849 4.14758ZM0.466836 3.06534L0.106516 2.13251L-2.30841 3.06531L0.1065 3.99816L0.466836 3.06534ZM8.34086 0.0238646L8.70118 0.956693L8.70195 0.956397L8.34086 0.0238646ZM18.4696 11.1094L19.1744 11.8189L19.1744 11.8188L18.4696 11.1094ZM16.0572 13.5059L15.2762 14.1305L15.9718 15.0002L16.7619 14.2154L16.0572 13.5059ZM15.234 12.4767L16.0149 11.8521L16.0147 11.8519L15.234 12.4767ZM14.406 12.3828L15.0256 13.1677L15.0258 13.1676L14.406 12.3828ZM14.3114 13.2053L15.0923 12.5806L15.0922 12.5804L14.3114 13.2053ZM15.523 14.7198L16.3412 14.1449L16.3233 14.1194L16.3039 14.0951L15.523 14.7198ZM16.4248 14.7994L15.7201 14.0899L15.72 14.09L16.4248 14.7994ZM19.3044 11.9387L18.5998 11.2292L18.5996 11.2293L19.3044 11.9387ZM19.3044 11.1094L18.5996 11.8188L18.5998 11.819L19.3044 11.1094ZM14.1256 2.16335L14.4859 1.23052L14.1256 1.09133L13.7653 1.23054L14.1256 2.16335ZM6.12865 5.25236L5.76838 4.31951L3.35312 5.25228L5.76833 6.18519L6.12865 5.25236ZM8.46381 6.15435L8.10349 7.08718L8.46381 7.22636L8.82413 7.08717L8.46381 6.15435ZM16.4608 3.06534L16.8211 3.99816L19.2361 3.06532L16.8211 2.13251L16.4608 3.06534ZM16.9276 3.60614H17.9276V2.14786L16.5673 2.67331L16.9276 3.60614ZM8.8032 6.74438L8.44287 5.81155L7.8032 6.05864V6.74438H8.8032ZM8.8032 16.0926H7.8032V17.5509L9.16352 17.0254L8.8032 16.0926ZM12.4984 14.6653L12.8587 15.5981L13.7959 15.236L13.4295 14.3005L12.4984 14.6653ZM16.9276 8.23441V9.23441H17.9276V8.23441H16.9276ZM8.12441 16.0925L7.76409 17.0254L9.12441 17.5508V16.0925H8.12441ZM8.12441 6.74438H9.12441V6.05863L8.48472 5.81154L8.12441 6.74438ZM5.66198 5.79325L6.02229 4.86042L4.66198 4.33499V5.79325H5.66198ZM5.47672 7.85228L6.12298 7.08917L6.12262 7.08886L5.47672 7.85228ZM4.16984 6.74657L4.81574 5.98315L4.39777 5.62952L3.87467 5.79112L4.16984 6.74657ZM2.94764 7.12414L2.65247 6.16869L2.64815 6.17004L2.94764 7.12414ZM2.80178 7.01756L3.80178 7.02128V7.01756H2.80178ZM2.80178 4.68842H3.80178V4.00268L3.1621 3.75559L2.80178 4.68842ZM0 3.60618L0.360322 2.67335L-1 2.1479V3.60618H0ZM0.216533 13.038L0.576857 12.1051L0.576718 12.1051L0.216533 13.038ZM8.22651 0.95669L10.905 1.99135L11.6257 0.125697L8.94717 -0.908961L8.22651 0.95669ZM10.905 0.125698L2.90816 3.21475L3.62882 5.0804L11.6257 1.99135L10.905 0.125698ZM3.62883 3.21475L0.827172 2.13251L0.1065 3.99816L2.90815 5.0804L3.62883 3.21475ZM0.827157 3.99816L8.70118 0.956693L7.98054 -0.908964L0.106516 2.13251L0.827157 3.99816ZM8.70195 0.956397C8.63696 0.981559 8.55576 1 8.46382 1C8.37189 1 8.29082 0.981567 8.22607 0.956522L8.9476 -0.908793C8.63333 -1.03036 8.29439 -1.03049 7.97977 -0.908668L8.70195 0.956397ZM16.9276 9.90864C18.6307 9.90864 20 11.2785 20 12.9543H22C22 10.1615 19.7229 7.90864 16.9276 7.90864V9.90864ZM20 12.9543C20 14.6302 18.6307 16 16.9276 16V18C19.7228 18 22 15.7472 22 12.9543H20ZM16.9276 16C15.2245 16 13.8551 14.6302 13.8551 12.9543H11.8551C11.8551 15.7472 14.1325 18 16.9276 18V16ZM13.8551 12.9543C13.8551 11.2785 15.2245 9.90864 16.9276 9.90864V7.90864C14.1324 7.90864 11.8551 10.1615 11.8551 12.9543H13.8551ZM17.7648 10.4L15.3524 12.7965L16.7619 14.2154L19.1744 11.8189L17.7648 10.4ZM16.8381 12.8813L16.0149 11.8521L14.453 13.1013L15.2762 14.1305L16.8381 12.8813ZM16.0147 11.8519C15.4678 11.1685 14.4713 11.057 13.7862 11.598L15.0258 13.1676C14.8501 13.3063 14.5951 13.2788 14.4532 13.1015L16.0147 11.8519ZM13.7864 11.5979C13.0971 12.142 12.9806 13.1428 13.5306 13.8301L15.0922 12.5804C15.2372 12.7616 15.2053 13.0258 15.0256 13.1677L13.7864 11.5979ZM13.5305 13.83L14.7421 15.3445L16.3039 14.0951L15.0923 12.5806L13.5305 13.83ZM14.7048 15.2947C15.2682 16.0966 16.4261 16.2078 17.1297 15.5087L15.72 14.09C15.9015 13.9096 16.1967 13.9393 16.3412 14.1449L14.7048 15.2947ZM17.1296 15.5088L20.0092 12.6482L18.5996 11.2293L15.7201 14.0899L17.1296 15.5088ZM20.009 12.6483C20.6335 12.0282 20.6335 11.0199 20.009 10.3998L18.5998 11.819C18.4366 11.6569 18.4366 11.3912 18.5998 11.2292L20.009 12.6483ZM20.0092 10.4C19.3886 9.78354 18.3854 9.78354 17.7648 10.4L19.1744 11.8188C19.0149 11.9772 18.7591 11.9772 18.5996 11.8188L20.0092 10.4ZM13.7653 1.23054C11.0997 2.26031 8.4341 3.29002 5.76838 4.31951L6.48891 6.18521C9.15473 5.15568 11.8204 4.12593 14.486 3.09616L13.7653 1.23054ZM5.76833 6.18519L8.10349 7.08718L8.82412 5.22152L6.48897 4.31953L5.76833 6.18519ZM8.82413 7.08717L16.8211 3.99816L16.1005 2.13251L8.10348 5.22152L8.82413 7.08717ZM16.8211 2.13251L14.4859 1.23052L13.7653 3.09618L16.1005 3.99817L16.8211 2.13251ZM16.5673 2.67331L8.44287 5.81155L9.16353 7.6772L17.2879 4.53897L16.5673 2.67331ZM7.8032 6.74438V16.0926H9.8032V6.74438H7.8032ZM9.16352 17.0254L12.8587 15.5981L12.138 13.7324L8.44288 15.1598L9.16352 17.0254ZM13.4295 14.3005C13.2663 13.8841 13.1764 13.4308 13.1764 12.9543H11.1764C11.1764 13.685 11.3148 14.3855 11.5672 15.03L13.4295 14.3005ZM13.1764 12.9543C13.1764 10.9061 14.8496 9.23441 16.9276 9.23441V7.23441C13.7575 7.23441 11.1764 9.78909 11.1764 12.9543H13.1764ZM17.9276 8.23441V3.60614H15.9276V8.23441H17.9276ZM9.12441 16.0925V6.74438H7.12441V16.0925H9.12441ZM8.48472 5.81154L6.02229 4.86042L5.30167 6.72608L7.7641 7.67721L8.48472 5.81154ZM4.66198 5.79325V7.76723H6.66198V5.79325H4.66198ZM4.66198 7.76723C4.66198 6.99928 5.55523 6.60835 6.12298 7.08917L4.83045 8.61539C5.54431 9.21995 6.66198 8.72602 6.66198 7.76723H4.66198ZM6.12262 7.08886L4.81574 5.98315L3.52393 7.50998L4.83081 8.6157L6.12262 7.08886ZM3.87467 5.79112L2.65247 6.1687L3.2428 8.07959L4.465 7.70201L3.87467 5.79112ZM2.64815 6.17004C2.78065 6.12845 2.92098 6.11857 3.05786 6.14108L2.73325 8.11456C2.90496 8.14281 3.08097 8.1304 3.24712 8.07824L2.64815 6.17004ZM3.05786 6.14108C3.19477 6.1636 3.32486 6.21798 3.43746 6.30027L2.25744 7.91506C2.39847 8.01812 2.56153 8.08632 2.73325 8.11456L3.05786 6.14108ZM3.43746 6.30027C3.55009 6.38258 3.64219 6.4906 3.70573 6.61596L1.92178 7.52013C2.00119 7.67681 2.11638 7.81198 2.25744 7.91506L3.43746 6.30027ZM3.70573 6.61596C3.76928 6.74135 3.8023 6.88025 3.80177 7.02128L1.80179 7.01384C1.80113 7.18993 1.84236 7.36342 1.92178 7.52013L3.70573 6.61596ZM3.80178 7.01756V4.68842H1.80178V7.01756H3.80178ZM3.1621 3.75559L0.360322 2.67335L-0.360322 4.53901L2.44146 5.62125L3.1621 3.75559ZM-1 3.60618V12.7236H1V3.60618H-1ZM-1 12.7236C-1 13.2822 -0.659227 13.7718 -0.143652 13.9708L0.576718 12.1051C0.825954 12.2013 1 12.4489 1 12.7236H-1ZM-0.14379 13.9708L7.76409 17.0254L8.48474 15.1597L0.576857 12.1051L-0.14379 13.9708Z" fill="#114B63" mask="url(#path-1-inside-1_2593_14999)"/>
</svg>
